<?xml version="1.0" encoding="UTF-8" standalone="no"?><!DOCTYPE svg PUBLIC "-//W3C//DTD SVG 1.1//EN" "http://www.w3.org/Graphics/SVG/1.1/DTD/svg11.dtd"><svg width="100%" height="100%" viewBox="0 0 45 81" version="1.1" xmlns="http://www.w3.org/2000/svg" xmlns:xlink="http://www.w3.org/1999/xlink" xml:space="preserve" xmlns:serif="http://www.serif.com/" style="fill-rule:evenodd;clip-rule:evenodd;stroke-linejoin:round;stroke-miterlimit:2;"><rect id="Artboard8" x="0" y="0" width="44.724" height="80.167" style="fill:none;"/><clipPath id="_clip1"><rect x="0" y="0" width="44.724" height="80.167"/></clipPath><g clip-path="url(#_clip1)"><rect id="Artboard7" x="0" y="0" width="44.724" height="81.687" style="fill:none;"/><g><path d="M42.115,0.972l-10.091,-0.016c-11.337,-0 -18.662,7.517 -18.662,19.15l-0,8.829l-10.146,0c-0.877,0 -1.586,0.712 -1.586,1.587l-0,12.793c-0,0.877 0.71,1.588 1.586,1.588l10.146,-0l-0,32.28c-0,0.876 0.709,1.586 1.586,1.586l13.237,-0c0.877,-0 1.587,-0.711 1.587,-1.586l0,-32.28l11.863,-0c0.876,-0 1.587,-0.711 1.587,-1.588l0.004,-12.793c-0,-0.42 -0.168,-0.823 -0.464,-1.121c-0.297,-0.298 -0.702,-0.466 -1.123,-0.466l-11.867,0l0,-7.484c0,-3.598 0.857,-5.424 5.544,-5.424l6.797,-0.002c0.876,-0 1.586,-0.711 1.586,-1.588l0,-11.878c0,-0.875 -0.709,-1.585 -1.584,-1.587Z" style="fill:#fff;fill-rule:nonzero;"/></g></g><g id="Photo-frame" serif:id="Photo frame"></g></svg>