<?xml version="1.0" encoding="UTF-8" standalone="no"?><!DOCTYPE svg PUBLIC "-//W3C//DTD SVG 1.1//EN" "http://www.w3.org/Graphics/SVG/1.1/DTD/svg11.dtd"><svg width="100%" height="100%" viewBox="0 0 390 634" version="1.1" xmlns="http://www.w3.org/2000/svg" xmlns:xlink="http://www.w3.org/1999/xlink" xml:space="preserve" xmlns:serif="http://www.serif.com/" style="fill-rule:evenodd;clip-rule:evenodd;stroke-linecap:round;stroke-linejoin:round;stroke-miterlimit:1.5;"><rect id="Artboard6" x="0" y="0" width="390" height="633.942" style="fill:none;"/><g><path d="M186.516,617.14l20.338,-601.029" style="fill:none;stroke:#d9674a;stroke-width:22.92px;"/><g><path d="M382.664,82.813c-0.684,-24.232 -20.914,-43.35 -45.146,-42.666l-284.098,8.026c-24.233,0.685 -43.351,20.914 -42.666,45.147c0.684,24.232 20.914,43.35 45.146,42.666l284.099,-8.026c24.232,-0.685 43.35,-20.915 42.665,-45.147Z" style="fill:#e0dfc0;"/><g><path d="M65.684,115.03l0.8,-43.963l9.413,-0.266l12.036,20.28l10.608,-20.919l9.478,-0.268l3.281,43.847l-9.939,0.281l-2.062,-28.664l-8.6,17.371l-5.134,0.145l-10.088,-16.646l-0.314,28.534l-9.479,0.268Z" style="fill:#fff;fill-rule:nonzero;"/><path d="M119.133,113.52l-1.24,-43.905l9.94,-0.281l1.24,43.905l-9.94,0.281Z" style="fill:#fff;fill-rule:nonzero;"/><path d="M137.63,112.997l-1.24,-43.905l9.478,-0.267l19.829,27.964l-0.805,-28.502l9.808,-0.277l1.24,43.905l-9.018,0.255l-20.304,-28.478l0.82,29.028l-9.808,0.277Z" style="fill:#fff;fill-rule:nonzero;"/><path d="M184.497,111.673l-1.24,-43.905l9.939,-0.28l1.241,43.904l-9.94,0.281Z" style="fill:#fff;fill-rule:nonzero;"/><path d="M202.27,111.171l0.8,-43.962l9.413,-0.266l12.035,20.279l10.608,-20.919l9.479,-0.268l3.281,43.847l-9.94,0.281l-2.061,-28.664l-8.6,17.371l-5.135,0.145l-10.088,-16.645l-0.314,28.533l-9.478,0.268Z" style="fill:#fff;fill-rule:nonzero;"/><path d="M251.901,109.769l15.15,-44.368l10.993,-0.31l17.301,43.451l-10.861,0.306l-3.641,-9.976l-15.469,0.437l-3.073,10.166l-10.4,0.294Zm15.559,-18.226l10.795,-0.305l-5.8,-16.437l-4.995,16.742Z" style="fill:#fff;fill-rule:nonzero;"/><path d="M300.085,108.408l-1.241,-43.905l9.94,-0.281l0.991,35.084l20.998,-0.593l0.249,8.821l-30.937,0.874Z" style="fill:#fff;fill-rule:nonzero;"/></g></g><g><path d="M329.551,367.907c1.416,-22.984 -16.095,-42.794 -39.079,-44.21l-202.781,-12.493c-22.984,-1.416 -42.794,16.095 -44.21,39.079c-1.416,22.984 16.094,42.794 39.079,44.21l202.78,12.493c22.985,1.416 42.795,-16.095 44.211,-39.079Z" style="fill:#f2bf5d;"/><g><path d="M88.816,374.946l2.566,-41.643l27.97,1.723l-0.511,8.304l-18.543,-1.143l-0.581,9.428l14.11,0.869l-0.496,8.054l-14.11,-0.869l-0.977,15.858l-9.428,-0.581Z" style="fill:#fff;fill-rule:nonzero;"/><path d="M123.129,361.205l1.592,-25.848l9.49,0.584l-1.519,24.662c-0.167,2.705 0.292,4.927 1.376,6.665c1.083,1.738 3.103,2.698 6.058,2.88c2.955,0.182 5.067,-0.523 6.335,-2.116c1.268,-1.593 1.985,-3.743 2.152,-6.448l1.519,-24.662l9.553,0.589l-1.593,25.848c-0.205,3.329 -1.104,6.22 -2.696,8.67c-1.593,2.451 -3.734,4.314 -6.424,5.589c-2.689,1.276 -5.824,1.804 -9.404,1.583c-3.538,-0.218 -6.574,-1.115 -9.109,-2.692c-2.535,-1.577 -4.442,-3.689 -5.72,-6.337c-1.278,-2.649 -1.815,-5.638 -1.61,-8.967Z" style="fill:#fff;fill-rule:nonzero;"/><path d="M164.923,379.635l2.566,-41.643l8.99,0.553l16.378,28.146l1.666,-27.034l9.303,0.573l-2.566,41.644l-8.554,-0.527l-16.784,-28.672l-1.696,27.533l-9.303,-0.573Z" style="fill:#fff;fill-rule:nonzero;"/><path d="M209.376,382.374l2.566,-41.644l9.428,0.581l-1.024,16.608l14.946,-15.75l10.926,0.673l-15.297,15.352l14.667,26.411l-11.425,-0.704l-9.994,-18.853l-4.538,4.483l-0.827,13.424l-9.428,-0.581Z" style="fill:#fff;fill-rule:nonzero;"/><path d="M260.198,385.505l1.073,-17.419l-13.117,-25.125l10.676,0.658l8.084,16.291l9.772,-15.191l10.239,0.631l-16.098,23.262l-1.077,17.481l-9.552,-0.588Z" style="fill:#fff;fill-rule:nonzero;"/></g></g><g><path d="M316.384,486.54c-1.234,-22.995 -20.905,-40.662 -43.9,-39.428l-176.408,9.467c-22.995,1.234 -40.662,20.905 -39.428,43.9c1.234,22.994 20.904,40.661 43.899,39.427l176.409,-9.466c22.995,-1.234 40.662,-20.905 39.428,-43.9Z" style="fill:#7fb5a0;"/><g><path d="M122.047,517.86l-1.79,-33.355l-13.492,0.724l-0.446,-8.308l36.416,-1.954l0.446,8.307l-13.429,0.721l1.789,33.355l-9.494,0.51Z" style="fill:#fff;fill-rule:nonzero;"/><path d="M150.343,516.341l-2.236,-41.662l28.483,-1.529l0.442,8.245l-19.051,1.023l0.436,8.12l14.804,-0.795l0.429,7.996l-14.804,0.794l0.483,8.995l20.425,-1.097l0.446,8.308l-29.857,1.602Z" style="fill:#fff;fill-rule:nonzero;"/><path d="M214.951,499.281l6.749,5.526c-1.081,1.645 -2.492,3.182 -4.231,4.612c-1.74,1.43 -3.713,2.601 -5.92,3.512c-2.206,0.912 -4.6,1.437 -7.182,1.576c-4.205,0.226 -7.972,-0.512 -11.3,-2.212c-3.328,-1.701 -5.985,-4.137 -7.972,-7.309c-1.987,-3.172 -3.093,-6.86 -3.319,-11.066c-0.165,-3.082 0.201,-5.993 1.098,-8.735c0.897,-2.742 2.239,-5.163 4.026,-7.263c1.788,-2.101 3.973,-3.784 6.557,-5.051c2.584,-1.266 5.479,-1.985 8.686,-2.157c3.831,-0.206 7.242,0.321 10.233,1.581c2.99,1.259 5.515,3.17 7.574,5.732l-6.102,6.529c-1.343,-1.682 -2.897,-3.008 -4.661,-3.978c-1.764,-0.97 -3.833,-1.392 -6.207,-1.264c-2.499,0.134 -4.622,0.843 -6.369,2.127c-1.748,1.284 -3.058,2.952 -3.929,5.003c-0.871,2.051 -1.242,4.284 -1.113,6.7c0.132,2.457 0.74,4.637 1.824,6.542c1.083,1.905 2.551,3.381 4.403,4.43c1.852,1.05 3.986,1.509 6.401,1.38c1.999,-0.108 3.65,-0.468 4.954,-1.081c1.303,-0.612 2.4,-1.371 3.291,-2.275c0.892,-0.904 1.728,-1.857 2.509,-2.859Z" style="fill:#fff;fill-rule:nonzero;"/><path d="M227.047,512.225l-2.236,-41.663l9.432,-0.506l0.858,15.991l18.052,-0.969l-0.858,-15.99l9.432,-0.507l2.235,41.663l-9.432,0.506l-0.918,-17.115l-18.052,0.969l0.919,17.115l-9.432,0.506Z" style="fill:#fff;fill-rule:nonzero;"/></g></g><g><path d="M191.351,456.634c2.239,0.394 3.737,2.532 3.343,4.771c-0.395,2.24 -2.533,3.738 -4.772,3.343c-2.24,-0.394 -3.738,-2.532 -3.343,-4.772c0.394,-2.239 2.532,-3.737 4.772,-3.342Z" style="fill:#c86600;"/><path d="M190.99,458.683l-0.707,4.016" style="fill:none;stroke:#762200;stroke-width:1.02px;"/><path d="M192.644,461.045l-4.016,-0.708" style="fill:none;stroke:#762200;stroke-width:1.02px;"/></g><g><path d="M348.164,222.713c0.42,-23.024 -17.933,-42.057 -40.957,-42.476l-260.251,-4.739c-23.024,-0.419 -42.057,17.933 -42.476,40.957c-0.419,23.024 17.933,42.057 40.957,42.476l260.251,4.739c23.024,0.419 42.057,-17.933 42.476,-40.957Z" style="fill:#ec7a5c;"/><g><path d="M72.852,224.205l0.139,-7.63l16.074,0.292l-0.329,18.075c-2.202,1.795 -4.761,3.187 -7.678,4.177c-2.917,0.99 -6.23,1.451 -9.941,1.383c-4.545,-0.083 -8.427,-1.081 -11.645,-2.996c-3.218,-1.915 -5.663,-4.524 -7.334,-7.829c-1.67,-3.304 -2.467,-7.083 -2.39,-11.336c0.057,-3.127 0.631,-6.015 1.722,-8.665c1.091,-2.649 2.614,-4.957 4.568,-6.924c1.955,-1.966 4.266,-3.478 6.933,-4.534c2.668,-1.057 5.586,-1.557 8.755,-1.499c3.794,0.069 7.117,0.828 9.969,2.278c2.851,1.449 5.172,3.441 6.961,5.976l-6.49,5.95c-1.264,-1.608 -2.7,-2.927 -4.307,-3.957c-1.608,-1.03 -3.58,-1.567 -5.915,-1.609c-2.543,-0.047 -4.733,0.518 -6.568,1.695c-1.836,1.176 -3.252,2.766 -4.248,4.771c-0.995,2.005 -1.516,4.237 -1.561,6.697c-0.048,2.668 0.462,5.003 1.531,7.004c1.069,2 2.531,3.56 4.388,4.678c1.856,1.118 3.973,1.699 6.35,1.742c1.667,0.03 3.193,-0.14 4.576,-0.511c1.383,-0.371 2.625,-0.984 3.725,-1.84l0.095,-5.254l-7.38,-0.134Z" style="fill:#fff;fill-rule:nonzero;"/><path d="M96.214,239.958l0.76,-41.716l15.51,0.283c3.253,0.059 5.952,0.703 8.098,1.93c2.147,1.228 3.744,2.842 4.792,4.842c1.048,2.001 1.55,4.189 1.507,6.566c-0.048,2.668 -0.685,5.013 -1.911,7.034c-1.225,2.022 -2.933,3.617 -5.123,4.787l8.952,16.867l-10.382,-0.189l-7.476,-15.464l-5.254,-0.095l-0.279,15.322l-9.194,-0.167Zm9.611,-22.723l5.816,0.106c1.751,0.032 3.137,-0.464 4.157,-1.488c1.019,-1.025 1.543,-2.329 1.572,-3.913c0.031,-1.71 -0.455,-3.074 -1.458,-4.093c-1.003,-1.02 -2.36,-1.545 -4.069,-1.576l-5.817,-0.106l-0.201,11.07Z" style="fill:#fff;fill-rule:nonzero;"/><path d="M152.671,242.05c-3.086,-0.057 -5.932,-0.661 -8.539,-1.814c-2.606,-1.153 -4.882,-2.748 -6.826,-4.785c-1.944,-2.037 -3.433,-4.4 -4.469,-7.088c-1.035,-2.689 -1.525,-5.575 -1.469,-8.661c0.057,-3.127 0.652,-6.004 1.784,-8.632c1.132,-2.628 2.696,-4.925 4.692,-6.891c1.997,-1.965 4.329,-3.477 6.996,-4.533c2.668,-1.057 5.545,-1.557 8.63,-1.501c3.085,0.056 5.931,0.661 8.538,1.813c2.607,1.153 4.882,2.748 6.826,4.786c1.944,2.037 3.434,4.389 4.47,7.057c1.036,2.667 1.525,5.564 1.468,8.691c-0.056,3.086 -0.65,5.953 -1.783,8.602c-1.133,2.648 -2.707,4.955 -4.724,6.921c-2.017,1.965 -4.349,3.476 -6.996,4.533c-2.647,1.057 -5.513,1.558 -8.598,1.502Zm0.161,-8.881c2.46,0.044 4.587,-0.522 6.381,-1.699c1.794,-1.176 3.179,-2.757 4.153,-4.741c0.975,-1.985 1.484,-4.165 1.527,-6.542c0.043,-2.376 -0.386,-4.563 -1.288,-6.561c-0.902,-1.997 -2.229,-3.607 -3.979,-4.827c-1.75,-1.221 -3.855,-1.853 -6.315,-1.898c-2.46,-0.045 -4.587,0.511 -6.381,1.667c-1.794,1.156 -3.188,2.715 -4.183,4.678c-0.995,1.963 -1.514,4.133 -1.557,6.51c-0.044,2.376 0.396,4.574 1.318,6.593c0.923,2.019 2.259,3.649 4.009,4.89c1.75,1.242 3.855,1.885 6.315,1.93Z" style="fill:#fff;fill-rule:nonzero;"/><path d="M200.953,242.929c-3.085,-0.057 -5.931,-0.661 -8.538,-1.814c-2.607,-1.152 -4.882,-2.748 -6.826,-4.785c-1.944,-2.037 -3.434,-4.4 -4.469,-7.088c-1.036,-2.689 -1.526,-5.575 -1.469,-8.661c0.057,-3.127 0.651,-6.004 1.783,-8.632c1.133,-2.628 2.697,-4.925 4.693,-6.891c1.996,-1.965 4.328,-3.476 6.996,-4.533c2.667,-1.057 5.544,-1.557 8.629,-1.501c3.086,0.056 5.932,0.661 8.539,1.813c2.606,1.153 4.882,2.748 6.826,4.786c1.944,2.037 3.434,4.389 4.47,7.057c1.035,2.667 1.525,5.564 1.468,8.692c-0.056,3.085 -0.651,5.952 -1.783,8.601c-1.133,2.648 -2.708,4.955 -4.725,6.921c-2.017,1.965 -4.349,3.476 -6.995,4.533c-2.647,1.057 -5.514,1.558 -8.599,1.502Zm0.162,-8.881c2.46,0.044 4.587,-0.522 6.381,-1.698c1.794,-1.177 3.178,-2.758 4.153,-4.742c0.974,-1.984 1.483,-4.165 1.527,-6.541c0.043,-2.377 -0.387,-4.564 -1.289,-6.562c-0.902,-1.997 -2.228,-3.606 -3.978,-4.827c-1.751,-1.221 -3.856,-1.853 -6.316,-1.898c-2.46,-0.045 -4.587,0.511 -6.38,1.667c-1.794,1.156 -3.188,2.715 -4.183,4.678c-0.996,1.964 -1.515,4.133 -1.558,6.51c-0.043,2.377 0.396,4.574 1.319,6.593c0.922,2.019 2.259,3.649 4.009,4.89c1.75,1.242 3.855,1.885 6.315,1.93Z" style="fill:#fff;fill-rule:nonzero;"/><path d="M238.998,242.558l-14.563,-41.995l10.444,0.19l9.64,30.644l10.499,-30.277l10.007,0.182l-16.083,41.437l-9.944,-0.181Z" style="fill:#fff;fill-rule:nonzero;"/><path d="M280.026,243.305l0.317,-17.449l-14.193,-24.533l10.695,0.195l8.782,15.925l9.105,-15.6l10.257,0.187l-15.076,23.937l-0.318,17.512l-9.569,-0.174Z" style="fill:#fff;fill-rule:nonzero;"/></g></g><g><path d="M203.103,184.089c1.887,1.268 2.389,3.83 1.121,5.717c-1.269,1.887 -3.831,2.39 -5.718,1.121c-1.887,-1.268 -2.389,-3.83 -1.121,-5.717c1.269,-1.887 3.831,-2.39 5.718,-1.121Z" style="fill:#c86600;"/><path d="M201.942,185.816l-2.275,3.384" style="fill:none;stroke:#762200;stroke-width:1.02px;"/><path d="M202.496,188.645l-3.384,-2.274" style="fill:none;stroke:#762200;stroke-width:1.02px;"/></g><g><path d="M198.253,322.329c2.103,0.866 3.106,3.276 2.24,5.379c-0.866,2.102 -3.276,3.106 -5.379,2.239c-2.102,-0.866 -3.106,-3.276 -2.239,-5.378c0.866,-2.103 3.276,-3.106 5.378,-2.24Z" style="fill:#c86600;"/><path d="M197.46,324.253l-1.553,3.77" style="fill:none;stroke:#762200;stroke-width:1.02px;"/><path d="M198.569,326.915l-3.77,-1.553" style="fill:none;stroke:#762200;stroke-width:1.02px;"/></g><g><circle cx="204.858" cy="51.83" r="4.12" style="fill:#c86600;"/><path d="M204.858,49.792l-0,4.077" style="fill:none;stroke:#762200;stroke-width:1.02px;"/><path d="M206.896,51.83l-4.077,0" style="fill:none;stroke:#762200;stroke-width:1.02px;"/></g></g></svg>