<?xml version="1.0" encoding="UTF-8" standalone="no"?><!DOCTYPE svg PUBLIC "-//W3C//DTD SVG 1.1//EN" "http://www.w3.org/Graphics/SVG/1.1/DTD/svg11.dtd"><svg width="100%" height="100%" viewBox="0 0 83 83" version="1.1" xmlns="http://www.w3.org/2000/svg" xmlns:xlink="http://www.w3.org/1999/xlink" xml:space="preserve" xmlns:serif="http://www.serif.com/" style="fill-rule:evenodd;clip-rule:evenodd;stroke-linejoin:round;stroke-miterlimit:2;"><rect id="Artboard9" x="0" y="0" width="82.885" height="82.596" style="fill:none;"/><clipPath id="_clip1"><rect x="0" y="0" width="82.885" height="82.596"/></clipPath><g clip-path="url(#_clip1)"><rect id="Artboard8" x="-0.935" y="-24.411" width="84.121" height="110.285" style="fill:none;"/><g><g><path d="M56.109,1.986l-29.362,-0c-13.512,-0 -24.467,10.957 -24.467,24.468l-0,29.362c-0,13.51 10.955,24.467 24.467,24.467l29.362,0c13.511,0 24.468,-10.957 24.468,-24.467l0,-29.362c0,-13.511 -10.957,-24.468 -24.468,-24.468Zm17.127,53.83c-0,9.443 -7.683,17.127 -17.127,17.127l-29.362,0c-9.445,0 -17.128,-7.684 -17.128,-17.127l0,-29.362c0,-9.445 7.683,-17.127 17.128,-17.127l29.362,-0c9.444,-0 17.127,7.682 17.127,17.127l-0,29.362Z" style="fill:#fff;fill-rule:nonzero;stroke:#fff;stroke-width:3.59px;"/></g></g><g><g><path d="M41.428,21.56c-10.81,0 -19.575,8.764 -19.575,19.575c-0,10.81 8.765,19.573 19.575,19.573c10.809,0 19.574,-8.763 19.574,-19.573c0,-10.811 -8.765,-19.575 -19.574,-19.575Zm-0,31.808c-6.743,0 -12.234,-5.49 -12.234,-12.233c0,-6.749 5.491,-12.235 12.234,-12.235c6.743,0 12.233,5.486 12.233,12.235c0,6.743 -5.49,12.233 -12.233,12.233Z" style="fill:#fff;fill-rule:nonzero;stroke:#fff;stroke-width:1.8px;"/></g></g><g><g><circle cx="62.47" cy="20.091" r="2.608" style="fill:#fff;stroke:#fff;stroke-width:1.8px;"/></g></g></g><g id="Photo-frame" serif:id="Photo frame"></g></svg>